PathFileType	4	(X/Y/Z)	C:/Users/beibeiliu/ov580/test_trc/User3\sequence.3_training_dense_left.trc
DataRate	CameraRate	NumFrames	NumMarkers	Units	OrigDataRate	OrigDataStartFrame	OrigNumFrames
120	120	21	19	mm	120	27	78
Frame#	Time	ThumbCMC			ThumbMCP			ThumbIP			ThumbTip			IndexMCP			IndexPIP			IndexTip			MiddleMCP			MiddlePIP			MiddleTip			RingMCP			RingPIP			RingTip			PinkyMCP			PinkyPIP			PinkyTip			BackHand1			BackHand2			BackHand3	
		X0	Y0	Z0	X1	Y1	Z1	X2	Y2	Z2	X3	Y3	Z3	X4	Y4	Z4	X5	Y5	Z5	X6	Y6	Z6	X7	Y7	Z7	X8	Y8	Z8	X9	Y9	Z9	X10	Y10	Z10	X11	Y11	Z11	X12	Y12	Z12	X13	Y13	Z13	X14	Y14	Z14	X15	Y15	Z15	X16	Y16	Z16	X17	Y17	Z17	X18	Y18	Z18	
26	0.216667	-196.258	59.0669	-63.4752	-190.148	61.5741	-99.1695	-201.968	54.4533	-126.314	-219.186	36.7065	-133.743	-233.081	75.6742	-118.052	-215.713	51.0076	-131.596	-209.108	44.0502	-100.397	-247.488	52.4637	-122.608	-220.54	37.4534	-129.252	-210.567	29.946	-92.3012	-248.511	37.1597	-116.375	-222.335	18.5929	-114.657	-214.626	21.361	-81.1457	-256.277	18.9788	-107.322	-228.547	10.3691	-105.014	-220.782	8.06324	-77.7162	-264.636	41.0698	-61.0867	-249.983	28.7464	-30.1937	-233.917	61.6293	-47.8269	
27	0.225	-179.557	53.3635	-65.9112	-165.46	50.1949	-100.694	-179.481	45.2578	-133.292	-203.2	31.7167	-141.408	-207.933	76.7994	-124.854	-189.323	49.2338	-136.076	-192.15	42.3173	-104.592	-220.232	62.0038	-130.679	-205.299	33.6542	-133.747	-197.793	32.1857	-91.9503	-233.863	44.8309	-121.701	-212.844	19.7506	-116.951	-207.788	21.1451	-86.7588	-244.613	30.9056	-114.076	-223.008	15.7505	-111.191	-216.996	15.6021	-80.6895	-242.25	60.2728	-67.5636	-237.599	44.6313	-38.0898	-214.231	70.6438	-56.6636	
28	0.233333	-153.811	46.541	-69.3146	-145.459	34.2857	-97.6731	-155.065	25.7995	-128.286	-178.167	17.6312	-136.932	-175.766	64.3646	-134.034	-166.963	34.8348	-139.596	-169.053	35.3666	-102.724	-192.139	55.9983	-133.594	-180.03	22.7022	-134.403	-180.681	23.3967	-98.2292	-206.208	39.2814	-127.224	-191.585	13.3633	-118.419	-188.032	19.5383	-87.9022	-220.138	32.7766	-117.348	-204.828	9.44223	-107.779	-201.369	16.0213	-78.5391	-221.238	66.2682	-78.051	-215.448	55.2397	-42.6154	-187.341	71.6031	-60.4687	
29	0.241667	-130.36	35.6959	-63.5824	-121.6	19.2176	-93.6519	-123.373	3.69929	-122.046	-151.494	-4.50329	-132.735	-146.106	45.046	-134.374	-136.307	12.8951	-134.755	-137.297	22.3701	-100.352	-165.513	34.6215	-137.774	-154.981	4.09039	-129.909	-154.842	16.3235	-90.399	-177.956	24.8948	-126.895	-168.541	-0.462764	-113.511	-167.942	10.7677	-82.9387	-191.698	20.9412	-116.737	-179.18	-1.48969	-102.365	-176.985	13.0055	-76.1089	-188.209	61.0225	-81.5848	-189.691	56.0071	-51.5656	-158.277	66.2433	-65.9823	
30	0.25	-107.294	27.8911	-61.2833	-90.1324	4.21658	-84.0338	-97.1952	-14.1774	-104.045	-122.178	-23.5486	-116.036	-108.132	17.8575	-131.313	-106.42	-10.4618	-121.959	-112.917	8.00497	-90.0016	-133.097	11.9891	-130.118	-125.003	-18.3077	-115.578	-129.161	1.04364	-83.3573	-146.516	1.33509	-121.694	-141.059	-19.2348	-98.6068	-135.884	2.19056	-74.5517	-161.607	-1.77065	-110.858	-152.209	-16.9555	-91.6255	-150.91	5.61776	-65.8337	-164.897	48.4353	-89.5082	-166.932	50.2124	-54.8709	-133.562	56.7586	-70.3866	
31	0.258333	-85.9615	25.357	-51.7743	-63.772	-2.1077	-68.1355	-66.6212	-23.6417	-86.2389	-86.7065	-42.1787	-99.3255	-81.6973	-1.74887	-119.196	-71.4263	-23.9512	-101.14	-82.7926	-0.729597	-77.6636	-98.3922	-12.9203	-118.762	-89.7667	-31.9764	-94.7909	-98.9675	-3.77235	-68.2748	-118.613	-18.5095	-107.567	-107.438	-33.5421	-85.3302	-110.257	-7.76871	-61.7064	-134.662	-21.8073	-98.9636	-121.619	-30.7847	-73.0129	-124.242	-8.30813	-56.9169	-141.681	30.501	-89.6083	-146.637	39.1476	-56.5716	-110.242	46.3411	-71.6279	
32	0.266667	-73.1636	28.7748	-47.5154	-46.9585	6.01674	-55.2276	-38.4446	-22.0129	-68.6877	-57.9405	-42.2261	-77.3349	-56.6041	-2.58938	-105.496	-45.6063	-23.2701	-81.7361	-64.8247	-0.808236	-65.6876	-74.0647	-21.1581	-103.683	-59.8527	-35.7208	-76.9432	-76.7321	-4.95999	-57.1426	-87.0703	-29.1265	-94.3953	-77.5055	-38.7598	-67.0323	-87.5004	-11.7784	-48.8292	-104.328	-37.3307	-83.196	-89.6221	-33.4196	-59.5761	-100.904	-7.65403	-46.1564	-125.342	12.2818	-88.496	-135.239	26.8265	-57.8389	-105.327	36.1549	-70.7804	
33	0.275	-70.1604	44.0973	-45.6573	-37.6759	24.6546	-49.6387	-22.6031	-4.81301	-59.1755	-34.1319	-26.9742	-61.0947	-43.7459	2.92163	-95.6911	-28.4199	-7.29511	-68.9751	-53.6768	12.7155	-58.0571	-49.8078	-15.1775	-91.5664	-37.2199	-19.936	-63.3064	-62.1812	5.17008	-47.9126	-62.1106	-25.5477	-80.5262	-53.8184	-25.99	-53.2602	-73.4348	-0.084181	-39.693	-75.4835	-36.8547	-68.7185	-67.6862	-24.2583	-47.0784	-84.9165	-4.33685	-34.235	-110.839	6.04152	-85.3003	-128.055	17.9597	-62.2573	-102.263	36.1378	-74.5011	
34	0.283333	-79.0015	59.4664	-46.659	-40.7455	53.0946	-45.8749	-20.5571	29.7729	-51.0688	-23.8542	1.61381	-52.9142	-37.6832	27.6331	-91.7603	-23.2794	24.5241	-61.2036	-50.2518	33.7069	-52.9698	-36.753	6.38903	-85.5731	-27.2047	9.23211	-54.465	-62.4382	26.4542	-46.0621	-48.6274	-8.69106	-73.4445	-38.5867	2.15288	-44.2113	-67.3767	18.9695	-35.1022	-61.3881	-20.5714	-62.8898	-52.7813	-3.85117	-38.2694	-75.8776	13.4866	-31.8639	-103.154	8.17101	-80.7951	-126.863	17.1664	-56.7814	-104.638	39.3505	-73.9396	
35	0.291667	-94.9649	77.8817	-48.4882	-55.8435	81.1871	-53.0225	-31.6356	65.68	-54.6048	-25.1591	39.0652	-51.8078	-42.8235	56.9444	-94.2504	-29.8173	64.5711	-63.6572	-58.555	61.5656	-56.0637	-36.207	33.0293	-84.5167	-28.5497	46.1128	-56.0508	-66.4677	50.075	-46.8257	-42.1462	18.8053	-71.632	-36.9203	33.2675	-42.7687	-66.6498	40.829	-35.8853	-45.4455	7.27237	-59.1356	-47.4071	24.6524	-36.2257	-74.1415	28.2654	-29.9515	-98.8037	13.1637	-79.3428	-124.367	16.8727	-56.2578	-111.717	46.7864	-71.933	
36	0.3	-117.01	84.7208	-55.7922	-84.1434	101.129	-63.9937	-55.3925	96.595	-66.2598	-34.197	75.2985	-62.2582	-60.53	74.4574	-100.371	-46.4081	88.3377	-76.2631	-75.1451	76.2225	-62.7657	-50.0467	59.2244	-93.0024	-40.9674	76.9115	-66.9907	-75.016	62.8365	-51.6108	-48.4768	43.8654	-77.9929	-42.5366	60.6013	-53.1477	-78.3593	58.0248	-42.8364	-46.8806	35.708	-64.0272	-50.9535	51.0585	-43.62	-79.6009	42.6078	-34.3405	-98.771	17.7829	-74.4439	-121.456	17.0564	-54.5573	-121.208	46.4382	-73.4663	
37	0.308333	-137.661	71.8642	-63.0342	-118.197	98.27	-79.1377	-92.0476	106.004	-85.013	-64.0865	95.0653	-82.5238	-85.2944	78.8541	-112.951	-78.5883	97.4338	-90.0002	-101.68	78.8373	-75.3783	-71.6081	64.2274	-104.434	-65.3859	87.215	-81.5155	-90.5929	65.9413	-62.2771	-61.7873	54.5758	-89.2731	-63.7499	77.4767	-65.4546	-90.0332	58.7495	-50.2115	-55.9543	44.1681	-75.6206	-60.5066	63.7738	-54.0385	-84.9958	53.2223	-43.5782	-104.497	17.1836	-75.5842	-117.304	7.32152	-49.5745	-133.265	35.6507	-77.1701	
38	0.316667	-154.873	45.058	-64.9327	-150.4	75.4989	-87.3974	-127.057	88.7551	-104.155	-100.513	83.8465	-100.754	-117.683	53.6693	-124.128	-113.074	82.1766	-106.86	-122.597	60.0925	-84.1241	-100.103	50.0926	-118.41	-94.0196	76.0471	-97.9465	-111.438	50.1875	-71.7803	-84.9431	46.7133	-103.896	-85.0578	69.5765	-83.0968	-104.535	52.2559	-61.5503	-74.0484	41.3796	-88.349	-78.6206	59.7183	-68.9254	-98.6637	39.0073	-51.1577	-107.344	0.645375	-75.141	-121.504	-4.5118	-49.1769	-144.676	10.0523	-74.331	
39	0.325	-170.636	19.5955	-61.0667	-171.031	42.4952	-85.5373	-153.814	56.9399	-112.753	-122.9	53.2708	-114.63	-142.391	24.734	-127.959	-138.553	51.493	-117.502	-146.9	33.1399	-87.4852	-120.43	21.4	-123.669	-119.974	48.8259	-107.035	-130.03	31.2145	-77.4874	-109.507	19.0135	-110.914	-108.409	44.859	-93.176	-123.02	28.1481	-65.951	-94.1948	20.113	-97.1024	-101.639	38.7473	-79.3566	-115.052	18.7861	-59.3092	-125.289	-23.625	-73.7502	-128.483	-23.68	-42.9065	-160.069	-14.1644	-64.5677	
40	0.333333	-200.892	-6.62758	-54.7087	-199.606	10.022	-83.4933	-188.243	19.8579	-111.493	-158.652	16.8919	-119.647	-177.449	-15.9104	-123.902	-172.614	13.0594	-115.874	-172.977	2.55065	-85.1804	-156.889	-18.9288	-121.23	-152.789	11.3435	-112.874	-164.036	0.812798	-75.8419	-139.928	-19.1709	-110.202	-138.852	9.69377	-99.0975	-153.035	-1.33036	-67.4698	-127.738	-20.3754	-98.9265	-128.803	4.69322	-84.8613	-143.141	-6.48573	-59.7927	-149.407	-56.2563	-68.1437	-153.563	-51.629	-34.5501	-184.176	-46.0817	-53.4072	
41	0.341667	-234.098	-28.2728	-43.428	-230.761	-12.0337	-70.9398	-220.072	-5.93693	-105.943	-194.298	-17.0849	-113.182	-223.678	-46.1468	-111.967	-210.569	-17.5267	-113.75	-206.517	-21.7371	-80.6469	-199.759	-51.2722	-114.484	-190.679	-20.5879	-109.329	-192.4	-25.9592	-70.0794	-181.516	-55.3381	-104.332	-176.978	-24.8049	-97.8334	-186.377	-26.4322	-65.1839	-165.103	-55.4044	-95.0573	-165.534	-29.6199	-83.3974	-175.35	-36.4156	-52.9081	-195.073	-84.4797	-56.9061	-195.304	-77.1192	-25.5869	-225.802	-67.072	-40.272	
42	0.35	-254.665	-22.8216	-39.7393	-250.35	-5.49801	-69.1538	-237.164	-11.7855	-99.5647	-219.649	-26.0224	-107.667	-263.125	-42.791	-105.16	-238.038	-20.2709	-107.604	-236.913	-24.3889	-73.5643	-239.857	-54.9617	-108.967	-219.023	-31.6115	-105.532	-224.467	-30.6781	-64.074	-223.567	-65.4921	-98.5975	-204.058	-41.123	-92.4271	-213.072	-36.0707	-61.1865	-207.691	-71.8897	-90.821	-198.765	-46.4224	-82.2663	-207.521	-45.4796	-53.143	-242.399	-86.7369	-47.2352	-235.425	-80.3339	-17.6202	-262.254	-60.7484	-32.1239	
43	0.358333	-258.626	5.9873	-38.9695	-248.039	12.3544	-70.725	-239.923	6.65443	-98.9849	-233.772	-21.2317	-112.29	-279.607	-13.203	-106.04	-250.844	-0.707452	-112.898	-244.023	-4.88546	-79.6409	-270.682	-32.9237	-105.953	-237.956	-18.5505	-107.001	-237.559	-20.4486	-69.2772	-257.971	-45.4982	-101.026	-230.971	-36.8357	-97.5418	-231.354	-32.4698	-61.5908	-250.319	-58.0625	-93.0939	-227.128	-46.2335	-85.6507	-229.648	-40.9363	-57.3124	-284.687	-55.0407	-48.7383	-271.667	-57.6238	-16.8786	-285.257	-21.8571	-30.3209	
44	0.366667	-242.358	21.858	-43.6861	-228.476	27.6456	-79.7388	-230.94	16.9804	-112.995	-241.461	-8.15512	-117.119	-274.358	24.6814	-108.347	-245.927	15.7035	-120.796	-240.093	9.10051	-85.8024	-277.628	4.0493	-109.605	-246.757	-6.1237	-117.116	-239.852	-6.70913	-76.2702	-272.529	-18.5184	-106.512	-245.249	-24.728	-104.525	-241.83	-21.4281	-68.3793	-275.7	-33.1598	-95.6571	-245.086	-35.3827	-90.705	-245.705	-27.1363	-61.2953	-295.154	-13.4049	-50.236	-282.814	-16.7222	-22.0627	-279.978	17.7814	-37.0001	
45	0.375	-212.522	27.1224	-55.7441	-201.685	24.4062	-91.0686	-208.545	14.6848	-116.811	-226.148	0.206939	-127.477	-242.028	45.1677	-118.353	-221.438	22.3805	-128.115	-220.055	15.943	-95.8443	-254.543	27.332	-121.095	-234.98	0.78884	-123.071	-230.031	-1.04795	-86.3325	-261.988	11.4122	-113.372	-242.29	-11.421	-113.096	-237.884	-9.1218	-75.7915	-269.919	-6.45352	-106.759	-249.906	-23.6073	-100.074	-244.354	-19.7656	-72.0353	-280.457	20.0976	-57.3176	-268.541	13.2313	-27.4555	-248.102	38.6479	-44.0288	
46	0.383333	-185.583	20.6647	-63.9368	-172.995	11.329	-95.9413	-183.545	4.79037	-123.642	-210.688	-3.53656	-130.734	-207.075	43.8484	-125.978	-197.232	15.2104	-137.901	-200.322	8.42619	-103.609	-223.385	31.5963	-129.907	-211.468	-1.13979	-130.389	-212.968	-2.07063	-93.2742	-242.929	15.8309	-121.306	-225.308	-10.7679	-119.632	-224.685	-9.90513	-84.8303	-250.989	3.59393	-115.486	-236.959	-16.0539	-110.109	-234.272	-13.9296	-80.126	-249.854	36.9981	-68.2253	-246.511	22.8667	-36.9251	-216.001	41.5026	-53.3068	
